# xmcd CD database file
#
# Track frame offsets:
#	150
#	19502
#	35712
#	63395
#	82480
#	103355
#	136720
#	171412
#	204430
#
# Disc length: 3441 seconds
#
# Revision: 2
# Processed by: cddbd v1.4PL0 Copyright (c) Steve Scherf et al.
# Submitted via: CDex 1.51
#
DISCID=800d6f09
DTITLE=Eric Clapton with Jimmie Vaughan - Kind of Blues - Cd2
DYEAR=1994
DGENRE=Blues
TTITLE0=Someday After A While
TTITLE1=I'm Tore Down
TTITLE2=Have You Ever Loved A Woman
TTITLE3=Crosscut Saw
TTITLE4=Five Long Years
TTITLE5=Crossroads
TTITLE6=Groaning The Blues
TTITLE7=Ain't Nobody's Business
TTITLE8=Sweet Home Chicago
EXTD=YEAR: 1994
EXTT0=
EXTT1=
EXTT2=
EXTT3=
EXTT4=
EXTT5=
EXTT6=
EXTT7=
EXTT8=
PLAYORDER=
